<mxfile host="app.diagrams.net" agent="Mozilla/5.0 (Windows NT 10.0; Win64; x64) AppleWebKit/537.36 (KHTML, like Gecko) Chrome/133.0.0.0 Safari/537.36" version="26.0.16">
  <diagram name="第 1 页" id="Z13YXTeYMu5rHQkVds1D">
    <mxGraphModel dx="1495" dy="762" grid="1" gridSize="10" guides="1" tooltips="1" connect="1" arrows="1" fold="1" page="1" pageScale="1" pageWidth="1169" pageHeight="827" math="0" shadow="0">
      <root>
        <mxCell id="0" />
        <mxCell id="1" parent="0" />
        <mxCell id="x49xO5P4Fd8nCYu349MA-1" value="DDL" style="text;html=1;align=center;verticalAlign=middle;whiteSpace=wrap;rounded=0;fontSize=16;fontStyle=1" vertex="1" parent="1">
          <mxGeometry x="80" y="687" width="60" height="30" as="geometry" />
        </mxCell>
        <mxCell id="x49xO5P4Fd8nCYu349MA-5" value="" style="group" vertex="1" connectable="0" parent="1">
          <mxGeometry x="212.5" y="410" width="60" height="78" as="geometry" />
        </mxCell>
        <mxCell id="x49xO5P4Fd8nCYu349MA-3" value="" style="sketch=0;outlineConnect=0;fontColor=#232F3E;gradientColor=none;fillColor=#232F3D;strokeColor=none;dashed=0;verticalLabelPosition=bottom;verticalAlign=top;align=center;html=1;fontSize=12;fontStyle=0;aspect=fixed;pointerEvents=1;shape=mxgraph.aws4.generic_application;shadow=1;" vertex="1" parent="x49xO5P4Fd8nCYu349MA-5">
          <mxGeometry x="6" width="48" height="48" as="geometry" />
        </mxCell>
        <mxCell id="x49xO5P4Fd8nCYu349MA-4" value="应用" style="text;html=1;align=center;verticalAlign=middle;whiteSpace=wrap;rounded=0;fontSize=16;" vertex="1" parent="x49xO5P4Fd8nCYu349MA-5">
          <mxGeometry y="48" width="60" height="30" as="geometry" />
        </mxCell>
        <mxCell id="x49xO5P4Fd8nCYu349MA-8" value="特定&lt;div&gt;数据库&lt;/div&gt;" style="shape=cylinder3;whiteSpace=wrap;html=1;boundedLbl=1;backgroundOutline=1;size=15;fontSize=16;fillColor=#dae8fc;strokeColor=#6c8ebf;opacity=40;" vertex="1" parent="1">
          <mxGeometry x="170" y="568.5" width="60" height="80" as="geometry" />
        </mxCell>
        <mxCell id="x49xO5P4Fd8nCYu349MA-9" value="&lt;div&gt;目标&lt;/div&gt;&lt;div&gt;数据库&lt;/div&gt;" style="shape=cylinder3;whiteSpace=wrap;html=1;boundedLbl=1;backgroundOutline=1;size=15;fontSize=16;fillColor=#FFCE9F;strokeColor=#d6b656;opacity=40;" vertex="1" parent="1">
          <mxGeometry x="260" y="567.5" width="60" height="80" as="geometry" />
        </mxCell>
        <mxCell id="x49xO5P4Fd8nCYu349MA-10" value="特定&lt;div&gt;数据库&lt;/div&gt;" style="shape=cylinder3;whiteSpace=wrap;html=1;boundedLbl=1;backgroundOutline=1;size=15;fontSize=16;fillColor=#dae8fc;strokeColor=#6c8ebf;opacity=40;shadow=0;" vertex="1" parent="1">
          <mxGeometry x="400" y="567.5" width="60" height="80" as="geometry" />
        </mxCell>
        <mxCell id="x49xO5P4Fd8nCYu349MA-11" value="&lt;div&gt;目标&lt;/div&gt;&lt;div&gt;数据库&lt;/div&gt;" style="shape=cylinder3;whiteSpace=wrap;html=1;boundedLbl=1;backgroundOutline=1;size=15;fontSize=16;fillColor=#FFCE9F;strokeColor=#d6b656;opacity=40;" vertex="1" parent="1">
          <mxGeometry x="550" y="567.5" width="60" height="80" as="geometry" />
        </mxCell>
        <mxCell id="x49xO5P4Fd8nCYu349MA-14" value="" style="group" vertex="1" connectable="0" parent="1">
          <mxGeometry x="472.5" y="410" width="60" height="78" as="geometry" />
        </mxCell>
        <mxCell id="x49xO5P4Fd8nCYu349MA-15" value="" style="outlineConnect=0;fontColor=#232F3E;gradientColor=none;fillColor=#232F3D;strokeColor=none;dashed=0;verticalLabelPosition=bottom;verticalAlign=top;align=center;html=1;fontSize=12;fontStyle=0;aspect=fixed;pointerEvents=1;shape=mxgraph.aws4.generic_application;shadow=1;" vertex="1" parent="x49xO5P4Fd8nCYu349MA-14">
          <mxGeometry x="6" width="48" height="48" as="geometry" />
        </mxCell>
        <mxCell id="x49xO5P4Fd8nCYu349MA-16" value="应用" style="text;html=1;align=center;verticalAlign=middle;whiteSpace=wrap;rounded=0;fontSize=16;" vertex="1" parent="x49xO5P4Fd8nCYu349MA-14">
          <mxGeometry y="48" width="60" height="30" as="geometry" />
        </mxCell>
        <mxCell id="x49xO5P4Fd8nCYu349MA-20" value="DML" style="text;html=1;align=center;verticalAlign=middle;whiteSpace=wrap;rounded=0;fontSize=16;fontStyle=1" vertex="1" parent="1">
          <mxGeometry x="80" y="500" width="60" height="30" as="geometry" />
        </mxCell>
        <mxCell id="x49xO5P4Fd8nCYu349MA-21" value="" style="aspect=fixed;pointerEvents=1;shadow=0;dashed=0;html=1;strokeColor=#6c8ebf;labelPosition=center;verticalLabelPosition=bottom;verticalAlign=top;align=center;fillColor=#dae8fc;shape=mxgraph.azure.script_file;" vertex="1" parent="1">
          <mxGeometry x="176.5" y="677" width="47" height="50" as="geometry" />
        </mxCell>
        <mxCell id="x49xO5P4Fd8nCYu349MA-22" value="" style="aspect=fixed;pointerEvents=1;shadow=0;dashed=0;html=1;strokeColor=#d6b656;labelPosition=center;verticalLabelPosition=bottom;verticalAlign=top;align=center;fillColor=#fff2cc;shape=mxgraph.azure.script_file;" vertex="1" parent="1">
          <mxGeometry x="266.5" y="677" width="47" height="50" as="geometry" />
        </mxCell>
        <mxCell id="x49xO5P4Fd8nCYu349MA-27" value="" style="endArrow=none;dashed=1;html=1;rounded=0;dashPattern=1 4;strokeWidth=3;" edge="1" parent="1">
          <mxGeometry width="50" height="50" relative="1" as="geometry">
            <mxPoint x="362.5" y="740" as="sourcePoint" />
            <mxPoint x="362.5" y="380" as="targetPoint" />
          </mxGeometry>
        </mxCell>
        <mxCell id="x49xO5P4Fd8nCYu349MA-30" value="数据库" style="text;html=1;align=center;verticalAlign=middle;whiteSpace=wrap;rounded=0;fontFamily=Helvetica;fontSize=16;fontColor=default;fontStyle=1" vertex="1" parent="1">
          <mxGeometry x="80" y="600" width="60" height="30" as="geometry" />
        </mxCell>
        <mxCell id="x49xO5P4Fd8nCYu349MA-33" value="" style="endArrow=classic;html=1;rounded=0;entryX=0.5;entryY=0;entryDx=0;entryDy=0;entryPerimeter=0;exitX=0.5;exitY=1;exitDx=0;exitDy=0;strokeWidth=2;" edge="1" parent="1" source="x49xO5P4Fd8nCYu349MA-4" target="x49xO5P4Fd8nCYu349MA-8">
          <mxGeometry width="50" height="50" relative="1" as="geometry">
            <mxPoint x="122.5" y="360" as="sourcePoint" />
            <mxPoint x="172.5" y="310" as="targetPoint" />
          </mxGeometry>
        </mxCell>
        <mxCell id="x49xO5P4Fd8nCYu349MA-34" value="" style="endArrow=classic;html=1;rounded=0;entryX=0.5;entryY=0;entryDx=0;entryDy=0;entryPerimeter=0;strokeWidth=2;" edge="1" parent="1" target="x49xO5P4Fd8nCYu349MA-9">
          <mxGeometry width="50" height="50" relative="1" as="geometry">
            <mxPoint x="242.5" y="490" as="sourcePoint" />
            <mxPoint x="210.5" y="579" as="targetPoint" />
          </mxGeometry>
        </mxCell>
        <mxCell id="x49xO5P4Fd8nCYu349MA-35" value="在&lt;b&gt;代码&lt;/b&gt;中&lt;b&gt;人工&lt;/b&gt;修改原生sql" style="text;html=1;align=center;verticalAlign=middle;whiteSpace=wrap;rounded=0;fontFamily=Helvetica;fontSize=16;fontColor=default;" vertex="1" parent="1">
          <mxGeometry x="284.5" y="488" width="68" height="70" as="geometry" />
        </mxCell>
        <mxCell id="x49xO5P4Fd8nCYu349MA-52" value="" style="edgeStyle=orthogonalEdgeStyle;rounded=0;orthogonalLoop=1;jettySize=auto;html=1;strokeWidth=2;" edge="1" parent="1" source="x49xO5P4Fd8nCYu349MA-36" target="x49xO5P4Fd8nCYu349MA-40">
          <mxGeometry relative="1" as="geometry" />
        </mxCell>
        <mxCell id="x49xO5P4Fd8nCYu349MA-36" value="" style="outlineConnect=0;fillColor=#7EA6E0;strokeColor=#6c8ebf;dashed=0;verticalLabelPosition=bottom;verticalAlign=top;align=center;html=1;fontSize=12;fontStyle=0;aspect=fixed;pointerEvents=1;shape=mxgraph.aws4.json_script;shadow=0;" vertex="1" parent="1">
          <mxGeometry x="412.5" y="500" width="35.75" height="48.92" as="geometry" />
        </mxCell>
        <mxCell id="x49xO5P4Fd8nCYu349MA-40" value="" style="outlineConnect=0;fillColor=#FFB570;strokeColor=#d6b656;dashed=0;verticalLabelPosition=bottom;verticalAlign=top;align=center;html=1;fontSize=12;fontStyle=0;aspect=fixed;pointerEvents=1;shape=mxgraph.aws4.json_script;shadow=0;" vertex="1" parent="1">
          <mxGeometry x="562.13" y="500.53999999999996" width="35.75" height="48.92" as="geometry" />
        </mxCell>
        <mxCell id="x49xO5P4Fd8nCYu349MA-42" value="原始方法" style="text;html=1;align=center;verticalAlign=middle;whiteSpace=wrap;rounded=0;fontFamily=Helvetica;fontSize=16;fontColor=default;fontStyle=1" vertex="1" parent="1">
          <mxGeometry x="196.5" y="750" width="104" height="30" as="geometry" />
        </mxCell>
        <mxCell id="x49xO5P4Fd8nCYu349MA-43" value="数据库模板化方法" style="text;html=1;align=center;verticalAlign=middle;whiteSpace=wrap;rounded=0;fontFamily=Helvetica;fontSize=16;fontColor=default;fontStyle=1" vertex="1" parent="1">
          <mxGeometry x="437.75" y="750" width="144.5" height="30" as="geometry" />
        </mxCell>
        <mxCell id="x49xO5P4Fd8nCYu349MA-44" style="edgeStyle=orthogonalEdgeStyle;rounded=0;orthogonalLoop=1;jettySize=auto;html=1;entryX=0;entryY=0.5;entryDx=0;entryDy=0;entryPerimeter=0;strokeWidth=2;" edge="1" parent="1" source="x49xO5P4Fd8nCYu349MA-21" target="x49xO5P4Fd8nCYu349MA-22">
          <mxGeometry relative="1" as="geometry" />
        </mxCell>
        <mxCell id="x49xO5P4Fd8nCYu349MA-45" value="&lt;b&gt;人工&lt;/b&gt;修改数据库定义" style="text;html=1;align=center;verticalAlign=middle;whiteSpace=wrap;rounded=0;fontFamily=Helvetica;fontSize=16;fontColor=default;" vertex="1" parent="1">
          <mxGeometry x="188" y="651.5" width="112.5" height="36" as="geometry" />
        </mxCell>
        <mxCell id="x49xO5P4Fd8nCYu349MA-46" value="" style="aspect=fixed;pointerEvents=1;shadow=0;dashed=0;html=1;strokeColor=#6c8ebf;labelPosition=center;verticalLabelPosition=bottom;verticalAlign=top;align=center;fillColor=#dae8fc;shape=mxgraph.azure.script_file;" vertex="1" parent="1">
          <mxGeometry x="406.88" y="677" width="47" height="50" as="geometry" />
        </mxCell>
        <mxCell id="x49xO5P4Fd8nCYu349MA-47" value="" style="aspect=fixed;pointerEvents=1;shadow=0;dashed=0;html=1;strokeColor=#d6b656;labelPosition=center;verticalLabelPosition=bottom;verticalAlign=top;align=center;fillColor=#fff2cc;shape=mxgraph.azure.script_file;" vertex="1" parent="1">
          <mxGeometry x="556.51" y="677" width="47" height="50" as="geometry" />
        </mxCell>
        <mxCell id="x49xO5P4Fd8nCYu349MA-48" style="edgeStyle=orthogonalEdgeStyle;rounded=0;orthogonalLoop=1;jettySize=auto;html=1;entryX=0;entryY=0.5;entryDx=0;entryDy=0;entryPerimeter=0;strokeWidth=2;" edge="1" parent="1" source="x49xO5P4Fd8nCYu349MA-46" target="x49xO5P4Fd8nCYu349MA-47">
          <mxGeometry relative="1" as="geometry" />
        </mxCell>
        <mxCell id="x49xO5P4Fd8nCYu349MA-49" value="&lt;b&gt;人工&lt;/b&gt;修改数据库定义" style="text;html=1;align=center;verticalAlign=middle;whiteSpace=wrap;rounded=0;fontFamily=Helvetica;fontSize=16;fontColor=default;" vertex="1" parent="1">
          <mxGeometry x="449.5" y="651.5" width="115" height="36" as="geometry" />
        </mxCell>
        <mxCell id="x49xO5P4Fd8nCYu349MA-53" value="&lt;b&gt;人工&lt;/b&gt;修改DML&lt;b&gt;配置文件&lt;/b&gt;" style="text;html=1;align=center;verticalAlign=middle;whiteSpace=wrap;rounded=0;fontFamily=Helvetica;fontSize=16;fontColor=default;" vertex="1" parent="1">
          <mxGeometry x="451.63" y="520" width="110.5" height="70" as="geometry" />
        </mxCell>
        <mxCell id="x49xO5P4Fd8nCYu349MA-54" value="" style="endArrow=none;dashed=1;html=1;rounded=0;dashPattern=1 4;strokeWidth=3;" edge="1" parent="1">
          <mxGeometry width="50" height="50" relative="1" as="geometry">
            <mxPoint x="645.5" y="744" as="sourcePoint" />
            <mxPoint x="645.5" y="384" as="targetPoint" />
          </mxGeometry>
        </mxCell>
        <mxCell id="x49xO5P4Fd8nCYu349MA-57" value="" style="sketch=0;html=1;aspect=fixed;strokeColor=#b85450;shadow=0;fillColor=#f8cecc;verticalAlign=top;labelPosition=center;verticalLabelPosition=bottom;shape=mxgraph.gcp2.arrow_cycle;opacity=60;" vertex="1" parent="1">
          <mxGeometry x="766.09" y="488" width="37.82" height="35.93" as="geometry" />
        </mxCell>
        <mxCell id="x49xO5P4Fd8nCYu349MA-60" value="特定&lt;div&gt;数据库&lt;/div&gt;" style="shape=cylinder3;whiteSpace=wrap;html=1;boundedLbl=1;backgroundOutline=1;size=15;fontSize=16;fillColor=#dae8fc;strokeColor=#6c8ebf;opacity=40;shadow=0;" vertex="1" parent="1">
          <mxGeometry x="682.5" y="567.5" width="60" height="80" as="geometry" />
        </mxCell>
        <mxCell id="x49xO5P4Fd8nCYu349MA-61" value="&lt;div&gt;目标&lt;/div&gt;&lt;div&gt;数据库&lt;/div&gt;" style="shape=cylinder3;whiteSpace=wrap;html=1;boundedLbl=1;backgroundOutline=1;size=15;fontSize=16;fillColor=#FFCE9F;strokeColor=#d6b656;opacity=40;" vertex="1" parent="1">
          <mxGeometry x="832.5" y="567.5" width="60" height="80" as="geometry" />
        </mxCell>
        <mxCell id="x49xO5P4Fd8nCYu349MA-62" value="" style="group" vertex="1" connectable="0" parent="1">
          <mxGeometry x="755" y="410" width="60" height="78" as="geometry" />
        </mxCell>
        <mxCell id="x49xO5P4Fd8nCYu349MA-63" value="" style="outlineConnect=0;fontColor=#232F3E;gradientColor=none;fillColor=#232F3D;strokeColor=none;dashed=0;verticalLabelPosition=bottom;verticalAlign=top;align=center;html=1;fontSize=12;fontStyle=0;aspect=fixed;pointerEvents=1;shape=mxgraph.aws4.generic_application;shadow=1;" vertex="1" parent="x49xO5P4Fd8nCYu349MA-62">
          <mxGeometry x="6" width="48" height="48" as="geometry" />
        </mxCell>
        <mxCell id="x49xO5P4Fd8nCYu349MA-64" value="应用" style="text;html=1;align=center;verticalAlign=middle;whiteSpace=wrap;rounded=0;fontSize=16;" vertex="1" parent="x49xO5P4Fd8nCYu349MA-62">
          <mxGeometry y="48" width="60" height="30" as="geometry" />
        </mxCell>
        <mxCell id="x49xO5P4Fd8nCYu349MA-65" value="" style="edgeStyle=orthogonalEdgeStyle;rounded=0;orthogonalLoop=1;jettySize=auto;html=1;strokeWidth=2;" edge="1" parent="1" source="x49xO5P4Fd8nCYu349MA-66" target="x49xO5P4Fd8nCYu349MA-67">
          <mxGeometry relative="1" as="geometry" />
        </mxCell>
        <mxCell id="x49xO5P4Fd8nCYu349MA-66" value="" style="outlineConnect=0;fillColor=#7EA6E0;strokeColor=#6c8ebf;dashed=0;verticalLabelPosition=bottom;verticalAlign=top;align=center;html=1;fontSize=12;fontStyle=0;aspect=fixed;pointerEvents=1;shape=mxgraph.aws4.json_script;shadow=0;" vertex="1" parent="1">
          <mxGeometry x="695" y="500" width="35.75" height="48.92" as="geometry" />
        </mxCell>
        <mxCell id="x49xO5P4Fd8nCYu349MA-67" value="" style="outlineConnect=0;fillColor=#FFB570;strokeColor=#d6b656;dashed=0;verticalLabelPosition=bottom;verticalAlign=top;align=center;html=1;fontSize=12;fontStyle=0;aspect=fixed;pointerEvents=1;shape=mxgraph.aws4.json_script;shadow=0;" vertex="1" parent="1">
          <mxGeometry x="844.63" y="500.53999999999996" width="35.75" height="48.92" as="geometry" />
        </mxCell>
        <mxCell id="x49xO5P4Fd8nCYu349MA-68" value="" style="aspect=fixed;pointerEvents=1;shadow=0;dashed=0;html=1;strokeColor=#6c8ebf;labelPosition=center;verticalLabelPosition=bottom;verticalAlign=top;align=center;fillColor=#dae8fc;shape=mxgraph.azure.script_file;" vertex="1" parent="1">
          <mxGeometry x="689.38" y="677" width="47" height="50" as="geometry" />
        </mxCell>
        <mxCell id="x49xO5P4Fd8nCYu349MA-69" value="" style="aspect=fixed;pointerEvents=1;shadow=0;dashed=0;html=1;strokeColor=#d6b656;labelPosition=center;verticalLabelPosition=bottom;verticalAlign=top;align=center;fillColor=#fff2cc;shape=mxgraph.azure.script_file;" vertex="1" parent="1">
          <mxGeometry x="839.01" y="677" width="47" height="50" as="geometry" />
        </mxCell>
        <mxCell id="x49xO5P4Fd8nCYu349MA-70" style="edgeStyle=orthogonalEdgeStyle;rounded=0;orthogonalLoop=1;jettySize=auto;html=1;entryX=0;entryY=0.5;entryDx=0;entryDy=0;entryPerimeter=0;strokeWidth=2;" edge="1" parent="1" source="x49xO5P4Fd8nCYu349MA-68" target="x49xO5P4Fd8nCYu349MA-69">
          <mxGeometry relative="1" as="geometry" />
        </mxCell>
        <mxCell id="x49xO5P4Fd8nCYu349MA-72" value="&lt;b&gt;自动&lt;/b&gt;程序修复" style="text;html=1;align=center;verticalAlign=middle;whiteSpace=wrap;rounded=0;fontFamily=Helvetica;fontSize=16;fontColor=default;" vertex="1" parent="1">
          <mxGeometry x="732" y="523.93" width="110.5" height="40" as="geometry" />
        </mxCell>
        <mxCell id="x49xO5P4Fd8nCYu349MA-75" value="" style="sketch=0;html=1;aspect=fixed;strokeColor=#b85450;shadow=0;fillColor=#f8cecc;verticalAlign=top;labelPosition=center;verticalLabelPosition=bottom;shape=mxgraph.gcp2.arrow_cycle;opacity=60;" vertex="1" parent="1">
          <mxGeometry x="768.22" y="660" width="37.82" height="35.93" as="geometry" />
        </mxCell>
        <mxCell id="x49xO5P4Fd8nCYu349MA-76" value="&lt;b&gt;自动&lt;/b&gt;程序修复" style="text;html=1;align=center;verticalAlign=middle;whiteSpace=wrap;rounded=0;fontFamily=Helvetica;fontSize=16;fontColor=default;" vertex="1" parent="1">
          <mxGeometry x="734.13" y="695.93" width="110.5" height="40" as="geometry" />
        </mxCell>
        <mxCell id="x49xO5P4Fd8nCYu349MA-77" value="自动程序修复方法" style="text;html=1;align=center;verticalAlign=middle;whiteSpace=wrap;rounded=0;fontFamily=Helvetica;fontSize=16;fontColor=default;fontStyle=1" vertex="1" parent="1">
          <mxGeometry x="715" y="750" width="144.5" height="30" as="geometry" />
        </mxCell>
      </root>
    </mxGraphModel>
  </diagram>
</mxfile>
